<svg xmlns="http://www.w3.org/2000/svg" xmlns:xlink="http://www.w3.org/1999/xlink" width="251" zoomAndPan="magnify" viewBox="0 0 188.25 188.250001" height="251" preserveAspectRatio="xMidYMid meet" version="1.0"><defs><clipPath id="f216ae5459"><path d="M 8.792969 96.621094 L 20.097656 96.621094 L 20.097656 107.929688 L 8.792969 107.929688 Z M 8.792969 96.621094 " clip-rule="nonzero"/></clipPath><clipPath id="583a3b94c2"><path d="M 14.445312 96.621094 C 11.324219 96.621094 8.792969 99.152344 8.792969 102.277344 C 8.792969 105.398438 11.324219 107.929688 14.445312 107.929688 C 17.566406 107.929688 20.097656 105.398438 20.097656 102.277344 C 20.097656 99.152344 17.566406 96.621094 14.445312 96.621094 Z M 14.445312 96.621094 " clip-rule="nonzero"/></clipPath><clipPath id="28d32ecce5"><path d="M 0.792969 0.621094 L 12.097656 0.621094 L 12.097656 11.929688 L 0.792969 11.929688 Z M 0.792969 0.621094 " clip-rule="nonzero"/></clipPath><clipPath id="78cd4599b1"><path d="M 6.445312 0.621094 C 3.324219 0.621094 0.792969 3.152344 0.792969 6.277344 C 0.792969 9.398438 3.324219 11.929688 6.445312 11.929688 C 9.566406 11.929688 12.097656 9.398438 12.097656 6.277344 C 12.097656 3.152344 9.566406 0.621094 6.445312 0.621094 Z M 6.445312 0.621094 " clip-rule="nonzero"/></clipPath><clipPath id="693252941c"><rect x="0" width="13" y="0" height="12"/></clipPath><clipPath id="f984ac1994"><path d="M 0 0 L 186.785156 0 L 186.785156 186.785156 L 0 186.785156 Z M 0 0 " clip-rule="nonzero"/></clipPath><clipPath id="902f7f4183"><path d="M 0 0 L 186.785156 0 L 186.785156 186.785156 L 0 186.785156 Z M 0 0 " clip-rule="nonzero"/></clipPath><clipPath id="c04c7b3880"><rect x="0" width="187" y="0" height="187"/></clipPath><clipPath id="de57ffebcb"><path d="M 35.957031 104 L 94 104 L 94 186.757812 L 35.957031 186.757812 Z M 35.957031 104 " clip-rule="nonzero"/></clipPath><clipPath id="60da7b6f64"><path d="M 93 104 L 151 104 L 151 186.757812 L 93 186.757812 Z M 93 104 " clip-rule="nonzero"/></clipPath></defs><g clip-path="url(#f216ae5459)"><g clip-path="url(#583a3b94c2)"><g transform="matrix(1, 0, 0, 1, 8, 96)"><g clip-path="url(#693252941c)"><g clip-path="url(#28d32ecce5)"><g clip-path="url(#78cd4599b1)"><path fill="#5f658b" d="M 0.792969 0.621094 L 12.097656 0.621094 L 12.097656 11.929688 L 0.792969 11.929688 Z M 0.792969 0.621094 " fill-opacity="1" fill-rule="nonzero"/></g></g></g></g></g></g><g clip-path="url(#f984ac1994)"><g transform="matrix(1, 0, 0, 1, 0, 0.00000000000000607)"><g clip-path="url(#c04c7b3880)"><g clip-path="url(#902f7f4183)"><path fill="#1e1e1e" d="M 0 0 L 186.785156 0 L 186.785156 186.785156 L 0 186.785156 Z M 0 0 " fill-opacity="1" fill-rule="nonzero"/></g></g></g></g><path fill="#868dac" d="M 93.472656 0.0976562 L 93.472656 67.867188 L 36.757812 94.464844 L 36.566406 94.355469 L 42.441406 84.625 Z M 93.472656 0.0976562 " fill-opacity="1" fill-rule="nonzero"/><g clip-path="url(#de57ffebcb)"><path fill="#868dac" d="M 93.472656 139.117188 L 93.472656 186.652344 L 35.957031 104.730469 Z M 93.472656 139.117188 " fill-opacity="1" fill-rule="nonzero"/></g><path fill="#5f658b" d="M 93.472656 67.867188 L 93.472656 128.378906 L 43.648438 98.589844 L 36.757812 94.464844 Z M 93.472656 67.867188 " fill-opacity="1" fill-rule="nonzero"/><path fill="#5f658b" d="M 150.386719 94.355469 L 150.199219 94.464844 L 93.472656 67.867188 L 93.472656 0.0976562 L 144.515625 84.625 Z M 150.386719 94.355469 " fill-opacity="1" fill-rule="nonzero"/><path fill="#434871" d="M 150.199219 94.464844 L 143.292969 98.589844 L 93.472656 128.378906 L 93.472656 67.867188 Z M 150.199219 94.464844 " fill-opacity="1" fill-rule="nonzero"/><g clip-path="url(#60da7b6f64)"><path fill="#5f658b" d="M 150.996094 104.730469 L 93.484375 186.664062 L 93.472656 186.652344 L 93.472656 139.117188 Z M 150.996094 104.730469 " fill-opacity="1" fill-rule="nonzero"/></g></svg>