<svg xmlns="http://www.w3.org/2000/svg" xmlns:xlink="http://www.w3.org/1999/xlink" width="102" zoomAndPan="magnify" viewBox="0 0 76.5 76.499999" height="102" preserveAspectRatio="xMidYMid meet" version="1.0"><defs><clipPath id="3a4252ce04"><path d="M 0 0 L 75.96875 0 L 75.96875 75.988281 L 0 75.988281 Z M 0 0 " clip-rule="nonzero"/></clipPath><clipPath id="122babcc87"><path d="M 16.046875 19 L 60 19 L 60 56.875 L 16.046875 56.875 Z M 16.046875 19 " clip-rule="nonzero"/></clipPath></defs><g clip-path="url(#3a4252ce04)"><path fill="#000000" d="M 27.671875 64.257812 C 30.753906 65.488281 34.148438 66.207031 37.316406 66.308594 L 37.316406 68.554688 C 33.621094 68.449219 29.996094 67.667969 26.640625 66.320312 Z M 9.792969 49.363281 L 11.882812 48.539062 C 14.6875 55.152344 19.863281 60.511719 26.339844 63.5625 L 25.445312 65.625 C 18.421875 62.335938 12.816406 56.527344 9.792969 49.363281 Z M 7.367188 37.433594 L 9.613281 37.433594 C 9.703125 40.601562 10.273438 43.785156 11.257812 46.5625 L 9.167969 47.289062 C 8.082031 44.253906 7.457031 40.601562 7.367188 37.433594 Z M 67.105469 36.378906 C 67.011719 33.214844 66.441406 30.605469 65.457031 27.824219 L 67.550781 26.902344 C 68.632812 29.9375 69.257812 33.214844 69.347656 36.378906 Z M 50.375 11.519531 L 51.269531 9.460938 C 58.292969 12.75 63.898438 18.554688 66.917969 25.722656 L 64.828125 26.546875 C 62.027344 19.929688 56.855469 14.570312 50.375 11.519531 Z M 38.898438 8.773438 L 38.898438 6.53125 C 42.59375 6.632812 46.375 7.414062 49.730469 8.765625 L 48.757812 10.824219 C 45.675781 9.59375 42.0625 8.878906 38.898438 8.773438 Z M 75.96875 37.992188 C 75.96875 17.011719 58.957031 0 37.972656 0 C 16.988281 0 -0.0234375 17.011719 -0.0234375 37.992188 C -0.0234375 58.980469 16.988281 75.988281 37.972656 75.988281 C 58.957031 75.988281 75.96875 58.980469 75.96875 37.992188 " fill-opacity="1" fill-rule="nonzero"/></g><g clip-path="url(#122babcc87)"><path fill="#1e40af" d="M 35.710938 32.878906 C 37.664062 31.617188 40.457031 31.222656 39.71875 28.339844 C 39.671875 26.550781 39.964844 25.496094 38.109375 24.488281 C 35.316406 22.902344 32.53125 21.292969 29.785156 19.628906 C 28.640625 18.933594 27.59375 18.871094 26.441406 19.535156 C 23.492188 21.230469 20.523438 22.898438 17.566406 24.585938 C 16.605469 25.136719 16.085938 25.921875 16.101562 27.097656 C 16.144531 30.441406 16.195312 33.789062 16.097656 37.132812 C 16.054688 38.601562 16.644531 39.496094 17.839844 40.167969 C 20.722656 41.78125 23.613281 43.390625 26.480469 45.042969 C 27.503906 45.636719 28.476562 45.671875 29.484375 45.09375 C 35.007812 41.9375 40.503906 38.738281 46.03125 35.597656 C 47.28125 34.894531 48.535156 34.976562 49.777344 35.734375 C 56.902344 39.703125 55.390625 38.433594 55.558594 46.28125 C 55.707031 49.253906 51.640625 50.046875 49.675781 51.589844 C 48.3125 52.4375 47.011719 52.328125 45.683594 51.539062 C 41.941406 49.09375 39.183594 49.378906 39.988281 43.960938 C 40.03125 43.359375 39.769531 43.15625 39.238281 43.457031 C 38.257812 44.007812 37.292969 44.582031 36.332031 45.167969 C 36.179688 45.261719 35.972656 45.449219 35.976562 45.585938 C 36.015625 47.117188 36.015625 48.65625 36.207031 50.167969 C 36.261719 50.589844 36.839844 51.042969 37.285156 51.304688 C 40.199219 53.003906 43.164062 54.613281 46.0625 56.335938 C 47.335938 57.09375 48.464844 56.992188 49.675781 56.289062 C 52.375 54.726562 55.066406 53.15625 57.804688 51.667969 C 59.210938 50.90625 59.828125 49.851562 59.796875 48.253906 C 59.742188 45.328125 59.707031 42.398438 59.832031 39.476562 C 59.910156 37.636719 59.269531 36.457031 57.652344 35.589844 C 54.90625 34.121094 52.222656 32.527344 49.53125 30.960938 C 48.371094 30.289062 47.265625 30.210938 46.074219 30.90625 C 40.667969 34.0625 35.230469 37.171875 29.835938 40.351562 C 28.535156 41.117188 27.371094 41.074219 26.132812 40.316406 C 19.167969 36.160156 20 37.808594 20.09375 29.621094 C 20.070312 28.308594 20.636719 27.433594 21.746094 26.808594 C 24.40625 25.585938 27.109375 22.386719 30.152344 24.53125 C 35.148438 27.945312 35.988281 25.933594 35.710938 32.878906 Z M 35.710938 32.878906 " fill-opacity="1" fill-rule="nonzero"/><path fill="#1e40af" d="M 35.710938 32.878906 C 36 25.941406 35.121094 27.925781 30.152344 24.53125 C 27.105469 22.382812 24.40625 25.589844 21.746094 26.808594 C 20.636719 27.433594 20.070312 28.308594 20.09375 29.621094 C 20 37.777344 19.164062 36.171875 26.132812 40.316406 C 27.371094 41.074219 28.535156 41.117188 29.835938 40.351562 C 35.230469 37.171875 40.667969 34.0625 46.074219 30.90625 C 47.265625 30.210938 48.371094 30.289062 49.53125 30.960938 C 52.222656 32.527344 54.90625 34.121094 57.652344 35.589844 C 59.269531 36.457031 59.910156 37.640625 59.832031 39.476562 C 59.707031 42.398438 59.742188 45.328125 59.796875 48.253906 C 59.828125 49.851562 59.210938 50.90625 57.804688 51.667969 C 55.066406 53.15625 52.375 54.726562 49.675781 56.289062 C 48.464844 56.992188 47.335938 57.09375 46.0625 56.335938 C 43.164062 54.613281 40.199219 53.003906 37.285156 51.304688 C 36.839844 51.042969 36.261719 50.589844 36.207031 50.171875 C 36.015625 48.65625 36.015625 47.117188 35.976562 45.589844 C 35.972656 45.449219 36.179688 45.261719 36.332031 45.167969 C 37.292969 44.582031 38.257812 44.007812 39.238281 43.457031 C 39.769531 43.15625 40.03125 43.359375 39.988281 43.960938 C 39.175781 49.371094 41.960938 49.105469 45.683594 51.539062 C 47.011719 52.328125 48.3125 52.4375 49.675781 51.589844 C 51.644531 50.046875 55.710938 49.242188 55.558594 46.28125 C 55.394531 38.464844 56.902344 39.691406 49.777344 35.734375 C 48.535156 34.976562 47.28125 34.894531 46.03125 35.601562 C 40.503906 38.738281 35.007812 41.9375 29.484375 45.09375 C 28.476562 45.671875 27.503906 45.636719 26.480469 45.042969 C 23.613281 43.390625 20.722656 41.78125 17.839844 40.167969 C 16.644531 39.496094 16.054688 38.601562 16.097656 37.132812 C 16.195312 33.789062 16.144531 30.441406 16.101562 27.097656 C 16.085938 25.921875 16.605469 25.136719 17.566406 24.585938 C 20.523438 22.898438 23.492188 21.230469 26.441406 19.535156 C 27.59375 18.871094 28.640625 18.933594 29.785156 19.628906 C 32.53125 21.292969 35.316406 22.902344 38.109375 24.488281 C 39.957031 25.492188 39.671875 26.542969 39.71875 28.339844 C 40.457031 31.222656 37.664062 31.617188 35.710938 32.878906 Z M 35.710938 32.878906 " fill-opacity="1" fill-rule="nonzero"/></g></svg>